<?xml version="1.0" standalone="no"?><!DOCTYPE svg PUBLIC "-//W3C//DTD SVG 1.1//EN" "http://www.w3.org/Graphics/SVG/1.1/DTD/svg11.dtd"><svg t="1600345749170" class="icon" viewBox="0 0 1024 1024" version="1.1" xmlns="http://www.w3.org/2000/svg" p-id="4367" xmlns:xlink="http://www.w3.org/1999/xlink" width="200" height="200"><defs><style type="text/css"></style></defs><path d="M684.29 799.276L393.929 513.019 684.29 226.762c37.685-37.153 38.003-97.625 0.707-134.384-37.297-36.758-98.646-36.435-136.331 0.718l-357.43 352.378c-0.155 0.153-0.297 0.314-0.451 0.468-0.084 0.082-0.172 0.157-0.256 0.239-18.357 18.092-27.581 41.929-27.743 65.902-0.004 0.311-0.017 0.623-0.018 0.934 0.001 0.316 0.014 0.632 0.018 0.948 0.165 23.97 9.389 47.803 27.743 65.892 0.083 0.082 0.171 0.157 0.255 0.239 0.154 0.154 0.296 0.315 0.452 0.468l357.43 352.378c37.685 37.153 99.034 37.476 136.331 0.718 37.297-36.758 36.979-97.231-0.707-134.384z" p-id="4368"></path></svg>