<?xml version="1.0" standalone="no"?><!DOCTYPE svg PUBLIC "-//W3C//DTD SVG 1.1//EN" "http://www.w3.org/Graphics/SVG/1.1/DTD/svg11.dtd"><svg t="1599653992299" class="icon" viewBox="0 0 1024 1024" version="1.1" xmlns="http://www.w3.org/2000/svg" p-id="1040" xmlns:xlink="http://www.w3.org/1999/xlink" width="200" height="200"><defs><style type="text/css"></style></defs><path d="M958.4 458L533.6 551.6l367.2 183.6C940.4 670.4 962 594.8 962 512c0-18 0-36-3.6-54z m-10.8-54C904.4 224 753.2 87.2 566 65.6L454.4 512l493.2-108zM710 915.2c64.8-32.4 122.4-79.2 165.6-140.4L508.4 591.2l201.6 324zM512 62C263.6 62 62 263.6 62 512s201.6 450 450 450c54 0 104.4-10.8 151.2-25.2L400.4 512 512 62z" p-id="1041"></path></svg>